HIERARCHY
ROOT root
{
	OFFSET	0	13.1	24.9
	CHANNELS 6  Xposition Yposition Zposition Xrotation Yrotation Zrotation
	JOINT spine_1
	{
		OFFSET	0	9.99999	0
		CHANNELS 3  Xrotation Yrotation Zrotation
		JOINT spine_2
		{
			OFFSET	0	112	-10
			CHANNELS 3  Xrotation Yrotation Zrotation
			JOINT spine_3
			{
				OFFSET	0	206.5	19.3
				CHANNELS 3  Xrotation Yrotation Zrotation
				JOINT spine_4
				{
					OFFSET	0	110.4	14.6
					CHANNELS 3  Xrotation Yrotation Zrotation
					JOINT neck_1
					{
						OFFSET	0	71.8	-50.3
						CHANNELS 3  Xrotation Yrotation Zrotation
						JOINT neck_2
						{
							OFFSET	0	86.2	-25.8
							CHANNELS 3  Xrotation Yrotation Zrotation
							JOINT head_ee
							{
								OFFSET	0	179.8	-8.7
								CHANNELS 3  Xrotation Yrotation Zrotation
								End Site
								{
									OFFSET	1	0	0
								}
							}
						}
					}
					JOINT left_clavicle
					{
						OFFSET	-43.2	22.4	-70.8
						CHANNELS 3  Xrotation Yrotation Zrotation
						JOINT left_shoulder
						{
							OFFSET	-93.9	-5.79999	48.7
							CHANNELS 3  Xrotation Yrotation Zrotation
							JOINT left_elbow
							{
								OFFSET	-291.4	-30.8	15.2
								CHANNELS 3  Xrotation Yrotation Zrotation
								JOINT left_lowarm_twist
								{
									OFFSET	-110.7	-3.89999	13.6
									CHANNELS 3  Xrotation Yrotation Zrotation
									JOINT left_hand
									{
										OFFSET	-110.7	-3.89999	13.6
										CHANNELS 3  Xrotation Yrotation Zrotation
										JOINT left_ee
										{
											OFFSET	-80.8	-5.10001	12.1
											CHANNELS 3  Xrotation Yrotation Zrotation
											End Site
											{
												OFFSET	1	0	0
											}
										}
									}
								}
							}
						}
					}
					JOINT right_clavicle
					{
						OFFSET	43.2	22.4	-70.8
						CHANNELS 3  Xrotation Yrotation Zrotation
						JOINT right_shoulder
						{
							OFFSET	93.9	-5.79999	48.7
							CHANNELS 3  Xrotation Yrotation Zrotation
							JOINT right_elbow
							{
								OFFSET	291.4	-30.8	15.2
								CHANNELS 3  Xrotation Yrotation Zrotation
								JOINT right_lowarm_twist
								{
									OFFSET	110.7	-3.89999	13.6
									CHANNELS 3  Xrotation Yrotation Zrotation
									JOINT right_hand
									{
										OFFSET	110.7	-3.89999	13.6
										CHANNELS 3  Xrotation Yrotation Zrotation
										JOINT right_ee
										{
											OFFSET	80.8	-5.10001	12.1
											CHANNELS 3  Xrotation Yrotation Zrotation
											End Site
											{
												OFFSET	1	0	0
											}
										}
									}
								}
							}
						}
					}
				}
			}
		}
	}
	JOINT left_hip
	{
		OFFSET	-82.8	-127.5	0.300001
		CHANNELS 3  Xrotation Yrotation Zrotation
		JOINT left_knee
		{
			OFFSET	-28.2	-396.7	2.2
			CHANNELS 3  Xrotation Yrotation Zrotation
			JOINT left_ankle
			{
				OFFSET	-11.7	-411.3	35.4
				CHANNELS 3  Xrotation Yrotation Zrotation
				JOINT left_toes
				{
					OFFSET	0	-60	-88.6
					CHANNELS 3  Xrotation Yrotation Zrotation
					JOINT left_foot_ee
					{
						OFFSET	-22.5	-16.5	-42.2
						CHANNELS 3  Xrotation Yrotation Zrotation
						End Site
						{
							OFFSET	1	0	0
						}
					}
				}
			}
		}
	}
	JOINT right_hip
	{
		OFFSET	82.8	-127.5	0.300001
		CHANNELS 3  Xrotation Yrotation Zrotation
		JOINT right_knee
		{
			OFFSET	28.2	-396.7	2.2
			CHANNELS 3  Xrotation Yrotation Zrotation
			JOINT right_ankle
			{
				OFFSET	11.7	-411.3	35.4
				CHANNELS 3  Xrotation Yrotation Zrotation
				JOINT right_toes
				{
					OFFSET	0	-60	-88.6
					CHANNELS 3  Xrotation Yrotation Zrotation
					JOINT right_foot_ee
					{
						OFFSET	22.5	-16.5	-42.2
						CHANNELS 3  Xrotation Yrotation Zrotation
						End Site
						{
							OFFSET	1	0	0
						}
					}
				}
			}
		}
	}
}
MOTION
Frames: 11
Frame Time: 0.02
1239.47 687.287 -1574.1 -11.8025 53.5544 10.8454 5.15364 0.302657 1.63106 5.15509 0.198269 1.64701 5.15947 -0.00312569 1.65889 5.15572 0.258869 1.63858 -9.19958 1.98963 -5.74186 -9.11255 7.68794 -5.17408 -0.0 0.0 -0.0 -0.6379 22.6552 1.73852 -44.9946 -28.7513 62.5914 0.589885 -16.2891 0.0844219 19.4407 0.270521 -2.45675 3.07914 15.8554 26.4984 -0.0 0.0 -0.0 7.45565 5.58561 -14.4719 -10.0652 21.3338 -59.9048 2.05208 45.4646 -0.85984 17.2214 -0.282034 2.17353 -0.230587 11.8344 6.59778 0.0 0.0 0.0 32.9669 21.018 -12.7795 6.70286 -0.333451 -0.973585 0.122202 -20.72 -0.0204667 -15.9689 0.0 0.0 -0.0 0.0 -0.0 -9.84559 32.0694 2.56974 -10.0877 -0.282104 -1.52045 43.383 -25.3606 5.49359 -7.88378 0.0 0.0 0.0 0.0 0.0 
1215.26 685.909 -1576.26 -11.9672 52.7076 10.5591 5.17695 0.258673 1.9769 5.17911 0.132378 1.98935 5.18174 -0.109361 1.99075 5.17627 0.206349 1.98304 -7.55308 0.594249 -5.37814 -7.46681 4.94938 -5.23198 -0.0 0.0 -0.0 -0.0895263 23.154 2.55742 -44.2337 -29.4171 59.9848 0.583024 -16.1096 0.0825078 19.3159 0.27146 -2.44084 2.84027 16.6481 25.0624 -0.0 0.0 -0.0 7.56952 8.53634 -14.6426 -12.1881 21.4571 -60.4134 2.0188 44.9964 -0.836212 17.8337 -0.279954 2.25172 0.33521 12.705 3.14368 0.0 0.0 0.0 33.3056 18.605 -14.13 4.68124 -0.220883 -0.684062 -0.339862 -27.5782 0.0615324 -10.5274 0.0 0.0 -0.0 0.0 -0.0 -12.0169 33.2225 4.74552 -10.1472 -0.282968 -1.52953 42.996 -25.7626 5.47351 -9.11198 0.0 0.0 0.0 0.0 0.0 
1192.89 695.215 -1580.22 -11.4865 51.901 10.4576 5.16682 0.257074 1.96457 5.16896 0.131567 1.97694 5.17157 -0.109017 1.97831 5.16616 0.204727 1.97071 -5.6475 1.04452 -4.72715 -5.5721 5.43679 -4.60214 -0.0 0.0 -0.0 0.551701 22.5285 3.38197 -43.5579 -30.9498 57.5089 0.554986 -15.3724 0.0749014 19.7258 0.268247 -2.4931 2.8497 17.6596 25.4065 -0.0 0.0 -0.0 7.56158 7.18734 -14.6608 -13.9147 20.6791 -61.0927 1.8952 43.1883 -0.750196 17.1206 -0.282297 2.16066 0.802605 13.9602 0.537822 0.0 0.0 0.0 33.011 17.7304 -15.1729 0.841745 -0.0355756 -0.12427 -1.36905 -28.5434 0.251704 -9.36981 0.0 0.0 -0.0 0.0 -0.0 -11.7701 33.2511 4.52379 -12.0497 -0.305647 -1.82055 42.2008 -24.9415 5.37221 -9.18325 0.0 0.0 0.0 0.0 0.0 
1167.69 705.003 -1584.58 -10.5588 52.1654 9.95612 4.95844 0.0956359 2.12895 4.96096 -0.0399974 2.13072 4.95736 -0.305972 2.10903 4.95115 0.0308718 2.13087 -5.72454 1.60681 -4.15529 -5.66291 6.04497 -3.91475 -0.0 0.0 -0.0 1.07787 22.573 4.12025 -43.9524 -31.9876 54.989 0.472176 -13.1651 0.0544874 19.5646 0.269556 -2.47254 2.67545 17.4691 24.1677 -0.0 0.0 -0.0 7.39835 7.00331 -14.3234 -16.2293 20.6352 -61.9337 1.83639 42.2886 -0.710288 16.6543 -0.283216 2.10111 1.06096 13.7485 -1.29089 0.0 0.0 0.0 28.7245 18.6031 -14.5536 2.77561 -0.124211 -0.407744 -0.120682 -29.8322 0.022496 -10.5251 0.0 0.0 -0.0 0.0 -0.0 -11.9902 33.0974 4.92892 -12.7516 -0.311572 -1.92808 41.8553 -24.9873 5.34208 -8.2283 0.0 0.0 0.0 0.0 0.0 
1145.86 711.858 -1587.89 -9.77884 52.393 9.77695 4.85839 -0.0061409 1.96796 4.86053 -0.131331 1.96359 4.8543 -0.379209 1.93111 4.8491 -0.069529 1.96675 -5.71298 1.69006 -5.26975 -5.61599 7.02578 -5.03254 -0.0 0.0 -0.0 0.74367 22.2484 3.62518 -43.3058 -33.1218 54.0675 0.570715 -15.7866 0.0791256 20.3553 0.262586 -2.5733 2.6714 16.7401 23.9344 -0.0 0.0 -0.0 7.23794 7.11098 -13.9854 -18.6404 20.3021 -62.0892 1.75951 41.072 -0.659159 16.258 -0.283616 2.0505 1.08017 12.9031 -1.78827 0.0 0.0 0.0 25.672 19.1305 -13.8698 0.501199 -0.0209625 -0.0740554 1.11946 -29.2479 -0.206248 -9.78898 0.0 0.0 -0.0 0.0 -0.0 -12.4727 32.9992 4.9604 -14.6405 -0.32097 -2.21774 41.5126 -25.6508 5.33327 -7.09551 0.0 0.0 0.0 0.0 0.0 
1118.39 716.655 -1589.43 -8.04651 54.153 8.40102 4.61807 0.111525 1.91326 4.62011 -0.0104234 1.91648 4.61824 -0.261061 1.89865 4.61321 0.0420144 1.91604 -4.94305 0.885304 -4.5821 -4.87018 5.07573 -4.52484 -0.0 0.0 -0.0 0.731304 21.5253 3.54319 -42.3989 -35.7832 50.4156 0.747528 -20.3197 0.133963 19.9115 0.266669 -2.51675 1.86901 17.5365 18.8501 -0.0 0.0 -0.0 6.99828 7.43176 -13.4757 -21.0723 20.0791 -61.6968 1.58448 38.1257 -0.547555 16.8632 -0.282864 2.12779 1.17313 7.98345 -4.53616 0.0 0.0 0.0 21.6352 19.8162 -12.278 -1.27161 0.0502661 0.188668 5.30938 -29.1929 -0.963628 -8.45422 0.0 0.0 -0.0 0.0 -0.0 -8.28682 35.7244 3.6358 -25.6915 -0.184835 -3.90536 42.2349 -24.974 5.37643 -1.68917 0.0 0.0 0.0 0.0 0.0 
1096.85 721.702 -1586.43 -7.36251 54.1896 7.57229 4.38844 0.427493 1.96597 4.39054 0.301553 1.98918 4.39956 0.0312236 2.01165 4.39408 0.348471 1.9815 -7.39782 0.49827 -3.23945 -7.36622 3.24856 -3.12503 -0.0 0.0 -0.0 1.22053 21.3162 4.22476 -40.7114 -37.8142 47.6833 0.739642 -20.1227 0.131237 18.58 0.276288 -2.34697 0.718381 18.1333 11.7701 -0.0 0.0 -0.0 6.83394 6.62089 -13.1578 -22.4576 19.8422 -61.6471 1.47498 36.152 -0.481438 17.4981 -0.281198 2.20887 1.30676 5.25513 -6.59671 0.0 0.0 0.0 20.1981 20.9772 -10.9559 -3.02275 0.112601 0.450177 5.68747 -28.2717 -1.01845 -8.14946 0.0 0.0 -0.0 0.0 -0.0 -6.3761 35.4454 3.48181 -31.0482 -0.0024943 -4.70692 42.2505 -24.7255 5.36938 1.52698 -0.0 -0.0 0.0 0.0 0.0 
1085.02 724.26 -1583.85 -5.69178 55.3096 5.28368 4.22134 0.446675 1.89541 4.22328 0.325184 1.91998 4.23293 0.058301 1.94644 4.22783 0.364916 1.91282 -7.19862 -1.31427 -2.79298 -7.17699 -0.433406 -3.05688 -0.0 0.0 -0.0 1.62915 20.855 4.78045 -39.18 -39.1371 45.1756 0.760247 -20.6365 0.138413 17.5614 0.280982 -2.21695 -0.246006 18.286 5.92379 -0.0 0.0 -0.0 6.78374 6.57993 -13.0549 -23.581 19.6521 -61.2453 1.39761 34.6943 -0.436588 17.2193 -0.28204 2.17327 1.45827 -1.32953 -10.3209 0.0 0.0 0.0 18.9869 21.2756 -9.36391 -4.95763 0.172138 0.741139 8.09721 -27.3538 -1.41993 -7.22889 0.0 0.0 -0.0 0.0 -0.0 -3.41816 37.8067 3.4219 -37.5295 0.317121 -5.6493 42.2527 -24.0044 5.34569 4.4653 -0.0 -0.0 0.0 0.0 0.0 
1076.61 725.071 -1583.12 -6.15714 55.0165 5.8403 4.2299 0.493763 1.6098 4.23126 0.390341 1.63794 4.24154 0.161872 1.676 4.23787 0.424498 1.62943 -8.93464 -0.430146 -1.47459 -8.92847 0.215783 -1.54952 -0.0 0.0 -0.0 1.97982 19.7042 5.22337 -37.6195 -41.0118 42.5905 0.8021 -21.6696 0.153516 16.7917 0.282995 -2.11866 -1.10186 18.33 0.773327 -0.0 0.0 -0.0 6.93791 7.24684 -13.3554 -24.2162 19.6062 -61.168 1.28741 32.5261 -0.375579 16.829 -0.282928 2.12343 1.72718 -0.919692 -11.9849 0.0 0.0 0.0 19.1243 22.2328 -9.40451 -5.65279 0.191123 0.846134 6.93538 -28.4179 -1.23834 -7.07918 0.0 0.0 -0.0 0.0 -0.0 -1.30176 37.5272 3.3665 -40.087 0.47231 -6.01046 42.179 -21.8258 5.27321 6.17912 -0.0 -0.0 0.0 0.0 0.0 
1060.49 726.367 -1581.46 -5.60298 54.2908 5.26043 4.11343 0.591894 1.33705 4.11428 0.505623 1.37199 4.12588 0.309706 1.42901 4.12342 0.531484 1.36218 -9.73098 -0.571445 -0.669811 -9.72987 -0.618623 -0.793924 -0.0 0.0 -0.0 2.27376 18.4725 5.59704 -36.2615 -42.2836 40.7423 0.846108 -22.7402 0.170149 16.1457 0.283666 -2.03616 -1.34159 17.9314 -0.850762 -0.0 0.0 -0.0 6.85735 7.00916 -13.1949 -25.1218 19.4748 -60.8108 1.12178 29.0599 -0.290745 16.1409 -0.283667 2.03554 1.28094 -3.26127 -9.8888 0.0 0.0 0.0 18.2526 22.788 -8.58246 -7.56173 0.236684 1.13552 10.4287 -26.3874 -1.78996 -5.93355 0.0 0.0 -0.0 0.0 -0.0 -0.639922 38.4577 3.75685 -42.4694 0.631295 -6.34047 42.1745 -21.9565 5.2765 7.55313 -0.0 -0.0 0.0 0.0 0.0 
1045.68 722.838 -1579.79 -5.43799 54.3673 5.052 4.11516 0.361 1.02981 4.11571 0.294743 1.05069 4.12078 0.145457 1.08151 4.11929 0.314426 1.04497 -9.18095 -1.05382 0.265308 -9.18169 -2.15964 0.0120275 -0.0 0.0 -0.0 2.26017 17.576 5.52951 -35.3617 -43.1594 38.8552 0.910766 -24.283 0.195945 15.5939 0.283502 -1.96567 -1.65033 16.7654 -3.2648 -0.0 0.0 -0.0 6.89257 7.03526 -13.2674 -25.8051 19.3262 -60.0012 0.990062 26.125 -0.229717 15.1857 -0.282944 1.91354 1.23585 -5.90647 -10.6154 0.0 0.0 0.0 17.9327 23.0512 -8.36484 -9.17835 0.267709 1.38165 9.99871 -26.2116 -1.71576 -5.49671 0.0 0.0 -0.0 0.0 -0.0 0.198059 39.1535 3.85491 -44.8289 0.802204 -6.66064 41.8263 -21.2128 5.22494 8.59855 -0.0 -0.0 0.0 0.0 0.0 
